<svg width="265" height="48" viewBox="0 0 265 48" fill="none" xmlns="http://www.w3.org/2000/svg">
<path d="M232.358 46.2727H241.148V32.0964L253.414 46.2727H264.169L249.89 29.9347L262.088 15.7682H252.3L241.148 28.8252V0L232.358 1.14847V46.2727ZM212.087 14.9868C202.328 14.9868 195.552 21.5296 195.552 31.0157C195.552 40.5019 202.328 47.0446 212.087 47.0446C221.845 47.0446 228.621 40.5019 228.621 31.0157C228.621 21.5296 221.845 14.9868 212.087 14.9868ZM212.087 39.5754C207.566 39.5754 204.468 36.0917 204.468 31.0157C204.468 25.9398 207.566 22.456 212.087 22.456C216.607 22.456 219.705 25.9398 219.705 31.0157C219.705 36.0917 216.607 39.5754 212.087 39.5754ZM176.364 14.9868C166.606 14.9868 159.83 21.5296 159.83 31.0157C159.83 40.5019 166.606 47.0446 176.364 47.0446C186.123 47.0446 192.899 40.5019 192.899 31.0157C192.899 21.5296 186.123 14.9868 176.364 14.9868ZM176.364 39.5754C171.844 39.5754 168.746 36.0917 168.746 31.0157C168.746 25.9398 171.844 22.456 176.364 22.456C180.885 22.456 183.983 25.9398 183.983 31.0157C183.983 36.0917 180.885 39.5754 176.364 39.5754ZM142.724 14.9868C138.658 14.9868 135.289 16.5791 133.178 19.4933V0L124.379 1.13866V46.2629H132.181L132.336 41.5537C134.418 45.0663 138.145 47.0446 142.724 47.0446C151.069 47.0446 157.177 40.2894 157.177 31.0157C157.177 21.7418 151.098 14.9868 142.724 14.9868ZM140.642 39.5754C136.121 39.5754 133.024 36.0917 133.024 31.0157C133.024 25.9398 136.121 22.456 140.642 22.456C145.163 22.456 148.261 25.9398 148.261 31.0157C148.261 36.0917 145.163 39.5754 140.642 39.5754ZM106.76 39.971C102.094 39.971 98.7439 37.8093 97.6017 34.0846H119.257C119.471 32.9459 119.616 31.5947 119.616 30.6876C119.616 20.8733 114.107 14.9868 104.852 14.9868C95.5106 14.9868 89.0437 21.5296 89.0437 31.0157C89.0437 40.6273 95.8204 47.0446 105.879 47.0446C111.087 47.0446 116.15 45.3077 119.316 42.4222L116.15 36.8639C113.081 38.9771 110.07 39.971 106.76 39.971ZM104.794 21.7998C108.86 21.7998 111.455 24.2605 111.455 28.0723V28.1015H97.4177C98.26 24.0581 100.883 21.7998 104.794 21.7998ZM75.2777 47.0541C79.8277 47.0541 84.2808 45.3172 87.4172 42.3063L83.9806 36.5453C81.541 38.4368 78.7725 39.4595 76.149 39.4595C71.2698 39.4595 68.0171 36.0626 68.0171 31.0252C68.0171 25.9879 71.2698 22.591 76.149 22.591C78.5594 22.591 81.1829 23.4595 83.3127 24.994L86.8075 19.1072C83.9806 16.5597 79.605 14.9963 75.2679 14.9963C65.7228 14.9963 58.9753 21.6357 58.9753 31.0252C58.9848 40.386 65.7323 47.0541 75.2777 47.0541ZM47.3292 15.7682L47.1745 20.5164C45.093 16.9747 41.3659 14.9963 36.787 14.9963C28.4131 14.9963 22.3335 21.7516 22.3335 31.0252C22.3335 40.2992 28.4518 47.0541 36.787 47.0541C41.3659 47.0541 45.1025 45.0758 47.1745 41.5633L47.3292 46.2724H55.1319V15.7682H47.3292ZM38.8682 39.5754C34.3474 39.5754 31.2495 36.0917 31.2495 31.0157C31.2495 25.9398 34.3474 22.456 38.8682 22.456C43.3893 22.456 46.4869 25.9398 46.4869 31.0157C46.4869 36.0917 43.3794 39.5754 38.8682 39.5754ZM21.6751 15.8256H13.766V13.2198C13.766 9.32119 15.2956 7.82557 19.2647 7.82557C20.4941 7.82557 21.4911 7.8544 22.0624 7.91235V1.22485C20.978 0.925551 18.3354 0.626545 16.8058 0.626545C8.72222 0.626545 4.99516 4.42861 4.99516 12.6409V15.8158H0V23.1887H4.99516V46.2623H13.7755V23.1982H20.32L21.6751 15.8256Z" fill="#0866FF"/>
</svg>
